<mxfile host="app.diagrams.net" agent="Mozilla/5.0 (Windows NT 10.0; Win64; x64) AppleWebKit/537.36 (KHTML, like Gecko) Chrome/138.0.0.0 Safari/537.36" version="28.0.6">
  <diagram name="Page-1" id="Jzcs6xe4tkx_1wj60qTc">
    <mxGraphModel dx="3728" dy="3501" grid="1" gridSize="10" guides="1" tooltips="1" connect="1" arrows="1" fold="1" page="1" pageScale="1" pageWidth="827" pageHeight="1169" math="0" shadow="0">
      <root>
        <mxCell id="0" />
        <mxCell id="1" parent="0" />
        <mxCell id="qPNzb-0w08D9c8R-QPfm-122" value="" style="group;fontSize=35;" vertex="1" connectable="0" parent="1">
          <mxGeometry x="46" y="-1160" width="3234" height="2280" as="geometry" />
        </mxCell>
        <mxCell id="JCvha5B-mu45JHcWkv43-71" value="" style="edgeStyle=orthogonalEdgeStyle;rounded=0;orthogonalLoop=1;jettySize=auto;html=1;fontSize=35;strokeWidth=3;" parent="qPNzb-0w08D9c8R-QPfm-122" source="JCvha5B-mu45JHcWkv43-67" target="JCvha5B-mu45JHcWkv43-70" edge="1">
          <mxGeometry relative="1" as="geometry" />
        </mxCell>
        <mxCell id="JCvha5B-mu45JHcWkv43-67" value="Payment" style="whiteSpace=wrap;html=1;fontSize=35;container=0;strokeWidth=2;" parent="qPNzb-0w08D9c8R-QPfm-122" vertex="1">
          <mxGeometry x="265.7205307899925" y="1623.3009708737866" width="471.82577532621485" height="63.94822006472491" as="geometry" />
        </mxCell>
        <mxCell id="JCvha5B-mu45JHcWkv43-70" value="Payment Confirmation" style="whiteSpace=wrap;html=1;fontSize=35;container=0;strokeWidth=2;" parent="qPNzb-0w08D9c8R-QPfm-122" vertex="1">
          <mxGeometry x="1091.4156376108683" y="1623.3009708737866" width="471.82577532621485" height="63.94822006472491" as="geometry" />
        </mxCell>
        <mxCell id="qPNzb-0w08D9c8R-QPfm-115" value="" style="edgeStyle=orthogonalEdgeStyle;rounded=0;orthogonalLoop=1;jettySize=auto;html=1;strokeColor=#4C0099;strokeWidth=3;fontSize=35;" edge="1" parent="qPNzb-0w08D9c8R-QPfm-122" source="JCvha5B-mu45JHcWkv43-72" target="qPNzb-0w08D9c8R-QPfm-114">
          <mxGeometry relative="1" as="geometry" />
        </mxCell>
        <mxCell id="qPNzb-0w08D9c8R-QPfm-117" style="edgeStyle=orthogonalEdgeStyle;rounded=0;orthogonalLoop=1;jettySize=auto;html=1;entryX=1;entryY=0.25;entryDx=0;entryDy=0;strokeWidth=3;exitX=1;exitY=0;exitDx=0;exitDy=57.49999999999999;exitPerimeter=0;fontSize=35;" edge="1" parent="qPNzb-0w08D9c8R-QPfm-122" source="JCvha5B-mu45JHcWkv43-72" target="JCvha5B-mu45JHcWkv43-74">
          <mxGeometry relative="1" as="geometry">
            <Array as="points">
              <mxPoint x="1707.830132335837" y="1856.4660194174758" />
              <mxPoint x="1707.830132335837" y="2169.320388349515" />
              <mxPoint x="1565.5109546411838" y="2169.320388349515" />
            </Array>
          </mxGeometry>
        </mxCell>
        <mxCell id="JCvha5B-mu45JHcWkv43-72" value="Update Booked Dates &amp;amp; Unit" style="shape=cylinder3;whiteSpace=wrap;html=1;boundedLbl=1;backgroundOutline=1;size=15;fontSize=35;container=0;strokeWidth=2;" parent="qPNzb-0w08D9c8R-QPfm-122" vertex="1">
          <mxGeometry x="1131.9543308873403" y="1770.8688673139156" width="393.18814610517904" height="127.89644012944981" as="geometry" />
        </mxCell>
        <mxCell id="JCvha5B-mu45JHcWkv43-73" value="" style="edgeStyle=none;orthogonalLoop=1;jettySize=auto;html=1;rounded=0;entryX=0.5;entryY=0;entryDx=0;entryDy=0;entryPerimeter=0;exitX=0.5;exitY=1;exitDx=0;exitDy=0;fontSize=35;strokeWidth=3;" parent="qPNzb-0w08D9c8R-QPfm-122" source="JCvha5B-mu45JHcWkv43-70" target="JCvha5B-mu45JHcWkv43-72" edge="1">
          <mxGeometry width="80" relative="1" as="geometry">
            <mxPoint x="1734.0147208936428" y="1663.8834951456308" as="sourcePoint" />
            <mxPoint x="2048.565237777786" y="1663.8834951456308" as="targetPoint" />
            <Array as="points" />
          </mxGeometry>
        </mxCell>
        <mxCell id="JCvha5B-mu45JHcWkv43-74" value="Booking Complete" style="whiteSpace=wrap;html=1;fontSize=35;container=0;strokeWidth=2;" parent="qPNzb-0w08D9c8R-QPfm-122" vertex="1">
          <mxGeometry x="1093.5026952215903" y="2154.558187702265" width="471.82577532621485" height="63.94822006472491" as="geometry" />
        </mxCell>
        <mxCell id="JCvha5B-mu45JHcWkv43-3" value="&lt;b style=&quot;font-family: &amp;quot;Times New Roman&amp;quot;; text-wrap-mode: nowrap;&quot;&gt;&lt;font&gt;Booking System Flowchart of LeFern Hotel Baguio&lt;/font&gt;&lt;/b&gt;" style="whiteSpace=wrap;html=1;fontSize=35;container=0;" parent="qPNzb-0w08D9c8R-QPfm-122" vertex="1">
          <mxGeometry x="913.7355140186917" y="29.514563106796114" width="1406.5289719626169" height="63.943300970873786" as="geometry" />
        </mxCell>
        <mxCell id="JCvha5B-mu45JHcWkv43-6" value="&lt;b&gt;Guest&lt;/b&gt;" style="whiteSpace=wrap;html=1;strokeColor=none;fillColor=none;fontSize=35;container=0;" parent="qPNzb-0w08D9c8R-QPfm-122" vertex="1">
          <mxGeometry x="265.7205307899925" y="132.82045307443354" width="471.82577532621485" height="31.974110032362454" as="geometry" />
        </mxCell>
        <mxCell id="JCvha5B-mu45JHcWkv43-7" value="&lt;b&gt;&lt;font style=&quot;color: light-dark(rgb(255, 0, 0), rgb(237, 237, 237));&quot;&gt;Time (minutes)&lt;/font&gt;&lt;/b&gt;" style="whiteSpace=wrap;html=1;strokeColor=none;fillColor=none;fontSize=35;container=0;" parent="qPNzb-0w08D9c8R-QPfm-122" vertex="1">
          <mxGeometry x="2762.1742246737845" y="132.82045307443354" width="471.82577532621485" height="31.974110032362454" as="geometry" />
        </mxCell>
        <mxCell id="JCvha5B-mu45JHcWkv43-8" value="&lt;b&gt;Receptionist&lt;/b&gt;" style="whiteSpace=wrap;html=1;strokeColor=none;fillColor=none;fontSize=35;container=0;" parent="qPNzb-0w08D9c8R-QPfm-122" vertex="1">
          <mxGeometry x="1091.4156376108683" y="132.82045307443354" width="471.82577532621485" height="31.974110032362454" as="geometry" />
        </mxCell>
        <mxCell id="JCvha5B-mu45JHcWkv43-9" value="&lt;b&gt;Third-Part Online Party&lt;/b&gt;" style="whiteSpace=wrap;html=1;strokeColor=none;fillColor=none;fontSize=35;container=0;" parent="qPNzb-0w08D9c8R-QPfm-122" vertex="1">
          <mxGeometry x="1917.1107444317445" y="132.82045307443354" width="550.4634045472507" height="31.974110032362454" as="geometry" />
        </mxCell>
        <mxCell id="JCvha5B-mu45JHcWkv43-15" value="" style="edgeStyle=orthogonalEdgeStyle;rounded=0;orthogonalLoop=1;jettySize=auto;html=1;fontSize=35;" parent="qPNzb-0w08D9c8R-QPfm-122" source="JCvha5B-mu45JHcWkv43-11" target="JCvha5B-mu45JHcWkv43-14" edge="1">
          <mxGeometry relative="1" as="geometry" />
        </mxCell>
        <mxCell id="JCvha5B-mu45JHcWkv43-11" value="Booking Inquiry" style="whiteSpace=wrap;html=1;fontSize=35;container=0;strokeWidth=2;" parent="qPNzb-0w08D9c8R-QPfm-122" vertex="1">
          <mxGeometry x="265.7205307899925" y="191.84466019417476" width="471.82577532621485" height="63.94822006472491" as="geometry" />
        </mxCell>
        <mxCell id="JCvha5B-mu45JHcWkv43-17" value="" style="edgeStyle=orthogonalEdgeStyle;rounded=0;orthogonalLoop=1;jettySize=auto;html=1;fontSize=35;strokeColor=#009900;strokeWidth=2;" parent="qPNzb-0w08D9c8R-QPfm-122" source="JCvha5B-mu45JHcWkv43-14" target="JCvha5B-mu45JHcWkv43-16" edge="1">
          <mxGeometry relative="1" as="geometry" />
        </mxCell>
        <mxCell id="qPNzb-0w08D9c8R-QPfm-84" style="edgeStyle=orthogonalEdgeStyle;rounded=0;orthogonalLoop=1;jettySize=auto;html=1;entryX=0;entryY=0.75;entryDx=0;entryDy=0;strokeColor=#3333FF;strokeWidth=2;fontSize=35;" edge="1" parent="qPNzb-0w08D9c8R-QPfm-122" source="JCvha5B-mu45JHcWkv43-14" target="JCvha5B-mu45JHcWkv43-33">
          <mxGeometry relative="1" as="geometry">
            <Array as="points">
              <mxPoint x="162.65048879388925" y="383.68932038834953" />
              <mxPoint x="162.65048879388925" y="559.3009708737865" />
            </Array>
          </mxGeometry>
        </mxCell>
        <mxCell id="qPNzb-0w08D9c8R-QPfm-85" style="edgeStyle=orthogonalEdgeStyle;rounded=0;orthogonalLoop=1;jettySize=auto;html=1;entryX=0;entryY=0.25;entryDx=0;entryDy=0;strokeColor=light-dark(#FF9933,#EDEDED);strokeWidth=2;fontSize=35;" edge="1" parent="qPNzb-0w08D9c8R-QPfm-122" source="JCvha5B-mu45JHcWkv43-14" target="JCvha5B-mu45JHcWkv43-33">
          <mxGeometry relative="1" as="geometry">
            <Array as="points">
              <mxPoint x="502.18338415113305" y="526.8349514563107" />
            </Array>
          </mxGeometry>
        </mxCell>
        <mxCell id="JCvha5B-mu45JHcWkv43-14" value="Booking Method" style="rhombus;whiteSpace=wrap;html=1;fontSize=35;container=0;strokeWidth=2;" parent="qPNzb-0w08D9c8R-QPfm-122" vertex="1">
          <mxGeometry x="265.7205307899925" y="319.74110032362455" width="471.82577532621485" height="127.89644012944981" as="geometry" />
        </mxCell>
        <mxCell id="JCvha5B-mu45JHcWkv43-19" value="" style="edgeStyle=orthogonalEdgeStyle;rounded=0;orthogonalLoop=1;jettySize=auto;html=1;fontSize=35;strokeWidth=2;strokeColor=#009900;" parent="qPNzb-0w08D9c8R-QPfm-122" source="JCvha5B-mu45JHcWkv43-16" target="JCvha5B-mu45JHcWkv43-18" edge="1">
          <mxGeometry relative="1" as="geometry" />
        </mxCell>
        <mxCell id="JCvha5B-mu45JHcWkv43-16" value="Guest Input Information" style="whiteSpace=wrap;html=1;fontSize=35;container=0;strokeWidth=2;" parent="qPNzb-0w08D9c8R-QPfm-122" vertex="1">
          <mxGeometry x="1956.4295590422619" y="351.7152103559869" width="471.82577532621485" height="63.94822006472491" as="geometry" />
        </mxCell>
        <mxCell id="JCvha5B-mu45JHcWkv43-21" value="" style="edgeStyle=orthogonalEdgeStyle;rounded=0;orthogonalLoop=1;jettySize=auto;html=1;fontSize=35;strokeWidth=3;strokeColor=#009900;" parent="qPNzb-0w08D9c8R-QPfm-122" source="JCvha5B-mu45JHcWkv43-18" target="JCvha5B-mu45JHcWkv43-20" edge="1">
          <mxGeometry relative="1" as="geometry" />
        </mxCell>
        <mxCell id="JCvha5B-mu45JHcWkv43-18" value="Select Desired Unit" style="whiteSpace=wrap;html=1;fontSize=35;container=0;strokeWidth=2;" parent="qPNzb-0w08D9c8R-QPfm-122" vertex="1">
          <mxGeometry x="1956.4295590422619" y="511.58576051779926" width="471.82577532621485" height="63.94822006472491" as="geometry" />
        </mxCell>
        <mxCell id="qPNzb-0w08D9c8R-QPfm-92" style="edgeStyle=orthogonalEdgeStyle;rounded=0;orthogonalLoop=1;jettySize=auto;html=1;entryX=0.75;entryY=0;entryDx=0;entryDy=0;strokeWidth=3;strokeColor=#009900;fontSize=35;" edge="1" parent="qPNzb-0w08D9c8R-QPfm-122" source="JCvha5B-mu45JHcWkv43-20" target="JCvha5B-mu45JHcWkv43-67">
          <mxGeometry relative="1" as="geometry">
            <Array as="points">
              <mxPoint x="2191.715336497658" y="1593.7864077669901" />
              <mxPoint x="620.1049885267026" y="1593.7864077669901" />
            </Array>
          </mxGeometry>
        </mxCell>
        <mxCell id="JCvha5B-mu45JHcWkv43-20" value="Guest Finalize&amp;nbsp;&lt;span style=&quot;background-color: transparent; color: light-dark(rgb(0, 0, 0), rgb(255, 255, 255));&quot;&gt;Details&lt;/span&gt;" style="whiteSpace=wrap;html=1;fontSize=35;container=0;strokeWidth=2;" parent="qPNzb-0w08D9c8R-QPfm-122" vertex="1">
          <mxGeometry x="1956.4295590422619" y="649.3253074433655" width="471.82577532621485" height="63.94822006472491" as="geometry" />
        </mxCell>
        <mxCell id="JCvha5B-mu45JHcWkv43-27" value="Agoda" style="text;html=1;align=center;verticalAlign=middle;resizable=0;points=[];autosize=1;strokeColor=none;fillColor=none;fontSize=35;container=0;" parent="qPNzb-0w08D9c8R-QPfm-122" vertex="1">
          <mxGeometry x="737.5423328095799" y="319.99915857605174" width="120" height="60" as="geometry" />
        </mxCell>
        <mxCell id="JCvha5B-mu45JHcWkv43-28" value="Walk-in" style="text;html=1;align=center;verticalAlign=middle;resizable=0;points=[];autosize=1;strokeColor=none;fillColor=none;fontSize=35;container=0;" parent="qPNzb-0w08D9c8R-QPfm-122" vertex="1">
          <mxGeometry x="513.9967077655568" y="469.6165695792879" width="140" height="60" as="geometry" />
        </mxCell>
        <mxCell id="JCvha5B-mu45JHcWkv43-35" value="Facebook" style="text;html=1;align=center;verticalAlign=middle;resizable=0;points=[];autosize=1;strokeColor=none;fillColor=none;fontSize=35;container=0;" parent="qPNzb-0w08D9c8R-QPfm-122" vertex="1">
          <mxGeometry x="173.99828892607022" y="504.0403883495146" width="180" height="60" as="geometry" />
        </mxCell>
        <mxCell id="JCvha5B-mu45JHcWkv43-42" value="" style="edgeStyle=orthogonalEdgeStyle;rounded=0;orthogonalLoop=1;jettySize=auto;html=1;fontSize=35;strokeWidth=2;strokeColor=#FF9933;" parent="qPNzb-0w08D9c8R-QPfm-122" source="JCvha5B-mu45JHcWkv43-36" target="JCvha5B-mu45JHcWkv43-41" edge="1">
          <mxGeometry relative="1" as="geometry" />
        </mxCell>
        <mxCell id="JCvha5B-mu45JHcWkv43-36" value="Acquire Guest Information" style="whiteSpace=wrap;html=1;fontSize=35;container=0;strokeWidth=2;" parent="qPNzb-0w08D9c8R-QPfm-122" vertex="1">
          <mxGeometry x="1091.4156376108683" y="649.3203883495146" width="471.82577532621485" height="63.94822006472491" as="geometry" />
        </mxCell>
        <mxCell id="JCvha5B-mu45JHcWkv43-56" value="" style="edgeStyle=orthogonalEdgeStyle;rounded=0;orthogonalLoop=1;jettySize=auto;html=1;fontSize=35;strokeWidth=2;" parent="qPNzb-0w08D9c8R-QPfm-122" source="JCvha5B-mu45JHcWkv43-41" target="JCvha5B-mu45JHcWkv43-55" edge="1">
          <mxGeometry relative="1" as="geometry" />
        </mxCell>
        <mxCell id="JCvha5B-mu45JHcWkv43-41" value="Collect Guest Inquiry Information" style="whiteSpace=wrap;html=1;fontSize=32;container=0;strokeWidth=2;" parent="qPNzb-0w08D9c8R-QPfm-122" vertex="1">
          <mxGeometry x="1091.4156376108683" y="785.3333333333334" width="471.82577532621485" height="63.94822006472491" as="geometry" />
        </mxCell>
        <mxCell id="qPNzb-0w08D9c8R-QPfm-86" style="edgeStyle=orthogonalEdgeStyle;rounded=0;orthogonalLoop=1;jettySize=auto;html=1;entryX=0;entryY=0.5;entryDx=0;entryDy=0;strokeWidth=2;strokeColor=#3333FF;fontSize=35;" edge="1" parent="qPNzb-0w08D9c8R-QPfm-122" source="JCvha5B-mu45JHcWkv43-33" target="JCvha5B-mu45JHcWkv43-41">
          <mxGeometry relative="1" as="geometry">
            <Array as="points">
              <mxPoint x="1327.6346147801212" y="619.8058252427185" />
              <mxPoint x="1016.5655549618078" y="619.8058252427185" />
              <mxPoint x="1016.5655549618078" y="817.5533980582525" />
            </Array>
          </mxGeometry>
        </mxCell>
        <mxCell id="qPNzb-0w08D9c8R-QPfm-87" style="edgeStyle=orthogonalEdgeStyle;rounded=0;orthogonalLoop=1;jettySize=auto;html=1;exitX=1;exitY=0.25;exitDx=0;exitDy=0;entryX=1;entryY=0.5;entryDx=0;entryDy=0;strokeColor=light-dark(#FF9933,#EDEDED);strokeWidth=2;fontSize=35;" edge="1" parent="qPNzb-0w08D9c8R-QPfm-122" source="JCvha5B-mu45JHcWkv43-33" target="JCvha5B-mu45JHcWkv43-36">
          <mxGeometry relative="1" as="geometry">
            <Array as="points">
              <mxPoint x="1707.830132335837" y="528.3106796116505" />
              <mxPoint x="1707.830132335837" y="681.7864077669904" />
            </Array>
          </mxGeometry>
        </mxCell>
        <mxCell id="JCvha5B-mu45JHcWkv43-33" value="Inquire Unit Availability" style="whiteSpace=wrap;html=1;fontSize=35;container=0;strokeWidth=2;" parent="qPNzb-0w08D9c8R-QPfm-122" vertex="1">
          <mxGeometry x="1091.4156376108683" y="511.58084142394813" width="471.82577532621485" height="63.94822006472491" as="geometry" />
        </mxCell>
        <mxCell id="JCvha5B-mu45JHcWkv43-64" value="" style="edgeStyle=orthogonalEdgeStyle;rounded=0;orthogonalLoop=1;jettySize=auto;html=1;fontSize=35;strokeWidth=3;" parent="qPNzb-0w08D9c8R-QPfm-122" source="JCvha5B-mu45JHcWkv43-55" target="JCvha5B-mu45JHcWkv43-63" edge="1">
          <mxGeometry relative="1" as="geometry" />
        </mxCell>
        <mxCell id="qPNzb-0w08D9c8R-QPfm-94" style="edgeStyle=orthogonalEdgeStyle;rounded=0;orthogonalLoop=1;jettySize=auto;html=1;entryX=0;entryY=0.5;entryDx=0;entryDy=0;strokeWidth=2;fontSize=35;" edge="1" parent="qPNzb-0w08D9c8R-QPfm-122" source="JCvha5B-mu45JHcWkv43-55" target="JCvha5B-mu45JHcWkv43-11">
          <mxGeometry relative="1" as="geometry">
            <Array as="points">
              <mxPoint y="975.4563106796116" />
              <mxPoint y="224.31067961165047" />
            </Array>
          </mxGeometry>
        </mxCell>
        <mxCell id="JCvha5B-mu45JHcWkv43-55" value="Unit Available?" style="rhombus;whiteSpace=wrap;html=1;fontSize=35;container=0;strokeWidth=2;" parent="qPNzb-0w08D9c8R-QPfm-122" vertex="1">
          <mxGeometry x="1096.330489437183" y="912.7427831715208" width="461.9960716735854" height="127.89644012944981" as="geometry" />
        </mxCell>
        <mxCell id="qPNzb-0w08D9c8R-QPfm-3" value="" style="edgeStyle=orthogonalEdgeStyle;rounded=0;orthogonalLoop=1;jettySize=auto;html=1;fontSize=35;strokeWidth=3;" edge="1" parent="qPNzb-0w08D9c8R-QPfm-122" source="JCvha5B-mu45JHcWkv43-63" target="qPNzb-0w08D9c8R-QPfm-2">
          <mxGeometry relative="1" as="geometry" />
        </mxCell>
        <mxCell id="JCvha5B-mu45JHcWkv43-63" value="Finalize Guest Booking Details" style="whiteSpace=wrap;html=1;fontSize=34;container=0;strokeWidth=2;" parent="qPNzb-0w08D9c8R-QPfm-122" vertex="1">
          <mxGeometry x="1092.6355162768225" y="1121.5583171521037" width="471.82577532621485" height="63.94822006472491" as="geometry" />
        </mxCell>
        <mxCell id="JCvha5B-mu45JHcWkv43-65" value="Yes" style="text;html=1;align=center;verticalAlign=middle;resizable=0;points=[];autosize=1;strokeColor=none;fillColor=none;fontSize=35;container=0;" parent="qPNzb-0w08D9c8R-QPfm-122" vertex="1">
          <mxGeometry x="1213.1818070072457" y="1030.388349514563" width="80" height="60" as="geometry" />
        </mxCell>
        <mxCell id="xt7HUY4mWSCbLze2-TeH-1" value="" style="endArrow=none;dashed=1;html=1;rounded=0;strokeColor=#FF0000;fontSize=35;strokeWidth=2;entryX=-0.025;entryY=0.519;entryDx=0;entryDy=0;entryPerimeter=0;" parent="qPNzb-0w08D9c8R-QPfm-122" edge="1" target="xt7HUY4mWSCbLze2-TeH-2">
          <mxGeometry width="50" height="50" relative="1" as="geometry">
            <mxPoint x="737.5463061162072" y="223.81877022653714" as="sourcePoint" />
            <mxPoint x="2939.3999243052094" y="223.81877022653714" as="targetPoint" />
          </mxGeometry>
        </mxCell>
        <mxCell id="xt7HUY4mWSCbLze2-TeH-2" value="t1 = 1" style="text;html=1;align=center;verticalAlign=middle;resizable=0;points=[];autosize=1;strokeColor=none;fillColor=none;fontColor=#FF0000;fontSize=35;container=0;fontStyle=1" parent="qPNzb-0w08D9c8R-QPfm-122" vertex="1">
          <mxGeometry x="2905.0632172495725" y="182.45954692556646" width="110" height="60" as="geometry" />
        </mxCell>
        <mxCell id="qPNzb-0w08D9c8R-QPfm-4" style="edgeStyle=orthogonalEdgeStyle;rounded=0;orthogonalLoop=1;jettySize=auto;html=1;entryX=0.25;entryY=0;entryDx=0;entryDy=0;fontSize=35;strokeWidth=3;strokeColor=#4C0099;" edge="1" parent="qPNzb-0w08D9c8R-QPfm-122" source="qPNzb-0w08D9c8R-QPfm-2" target="JCvha5B-mu45JHcWkv43-67">
          <mxGeometry relative="1" as="geometry" />
        </mxCell>
        <mxCell id="qPNzb-0w08D9c8R-QPfm-5" value="Yes" style="edgeLabel;html=1;align=center;verticalAlign=middle;resizable=0;points=[];fontSize=35;" vertex="1" connectable="0" parent="qPNzb-0w08D9c8R-QPfm-4">
          <mxGeometry x="-0.5867" y="1" relative="1" as="geometry">
            <mxPoint x="170" y="-29" as="offset" />
          </mxGeometry>
        </mxCell>
        <mxCell id="qPNzb-0w08D9c8R-QPfm-7" value="" style="edgeStyle=orthogonalEdgeStyle;rounded=0;orthogonalLoop=1;jettySize=auto;html=1;fontSize=35;strokeWidth=3;" edge="1" parent="qPNzb-0w08D9c8R-QPfm-122" source="qPNzb-0w08D9c8R-QPfm-2" target="qPNzb-0w08D9c8R-QPfm-6">
          <mxGeometry relative="1" as="geometry" />
        </mxCell>
        <mxCell id="qPNzb-0w08D9c8R-QPfm-2" value="Guest check in today?" style="rhombus;whiteSpace=wrap;html=1;fontSize=35;strokeWidth=2;" vertex="1" parent="qPNzb-0w08D9c8R-QPfm-122">
          <mxGeometry x="1103.6852230220347" y="1269.1262135922332" width="447.28884418319547" height="118.05825242718446" as="geometry" />
        </mxCell>
        <mxCell id="qPNzb-0w08D9c8R-QPfm-9" style="edgeStyle=orthogonalEdgeStyle;rounded=0;orthogonalLoop=1;jettySize=auto;html=1;entryX=0.5;entryY=0;entryDx=0;entryDy=0;exitX=0.5;exitY=1;exitDx=0;exitDy=0;fontSize=35;strokeWidth=3;" edge="1" parent="qPNzb-0w08D9c8R-QPfm-122" source="qPNzb-0w08D9c8R-QPfm-6" target="JCvha5B-mu45JHcWkv43-67">
          <mxGeometry relative="1" as="geometry">
            <Array as="points">
              <mxPoint x="1329.6677458900447" y="1564.2718446601941" />
              <mxPoint x="502.18338415113305" y="1564.2718446601941" />
            </Array>
          </mxGeometry>
        </mxCell>
        <mxCell id="qPNzb-0w08D9c8R-QPfm-6" value="Reserve Unit" style="whiteSpace=wrap;html=1;fontSize=35;strokeWidth=2;" vertex="1" parent="qPNzb-0w08D9c8R-QPfm-122">
          <mxGeometry x="1084.573790588753" y="1460.9708737864078" width="487.9514663816679" height="59.02912621359223" as="geometry" />
        </mxCell>
        <mxCell id="qPNzb-0w08D9c8R-QPfm-8" value="No" style="text;html=1;align=center;verticalAlign=middle;resizable=0;points=[];autosize=1;strokeColor=none;fillColor=none;fontSize=35;" vertex="1" parent="qPNzb-0w08D9c8R-QPfm-122">
          <mxGeometry x="1254.0043215037877" y="1387.1858252427185" width="70" height="60" as="geometry" />
        </mxCell>
        <mxCell id="qPNzb-0w08D9c8R-QPfm-11" value="" style="endArrow=none;dashed=1;html=1;rounded=0;exitX=1;exitY=0.5;exitDx=0;exitDy=0;fontColor=#FF0000;strokeColor=light-dark(#ff0000, #ededed);fontSize=35;strokeWidth=2;entryX=-0.004;entryY=0.487;entryDx=0;entryDy=0;entryPerimeter=0;" edge="1" parent="qPNzb-0w08D9c8R-QPfm-122" source="JCvha5B-mu45JHcWkv43-16" target="qPNzb-0w08D9c8R-QPfm-81">
          <mxGeometry width="50" height="50" relative="1" as="geometry">
            <mxPoint x="2427.558545248797" y="383.68932038834953" as="sourcePoint" />
            <mxPoint x="2935.841322729701" y="383.68932038834953" as="targetPoint" />
          </mxGeometry>
        </mxCell>
        <mxCell id="qPNzb-0w08D9c8R-QPfm-81" value="&lt;b&gt;t2 = 5&lt;/b&gt;" style="text;html=1;align=center;verticalAlign=middle;resizable=0;points=[];autosize=1;strokeColor=none;fillColor=none;fontColor=#FF0000;fontSize=35;container=0;" vertex="1" parent="qPNzb-0w08D9c8R-QPfm-122">
          <mxGeometry x="2905.0670495897307" y="344.1747572815534" width="110" height="60" as="geometry" />
        </mxCell>
        <mxCell id="qPNzb-0w08D9c8R-QPfm-82" value="" style="endArrow=none;dashed=1;html=1;rounded=0;exitX=1;exitY=0.5;exitDx=0;exitDy=0;fontColor=#FF0000;strokeColor=light-dark(#ff0000, #ededed);fontSize=35;strokeWidth=2;" edge="1" parent="qPNzb-0w08D9c8R-QPfm-122">
          <mxGeometry width="50" height="50" relative="1" as="geometry">
            <mxPoint x="2428.2498098261713" y="546.0194174757282" as="sourcePoint" />
            <mxPoint x="2936.532587307075" y="546.0194174757282" as="targetPoint" />
          </mxGeometry>
        </mxCell>
        <mxCell id="qPNzb-0w08D9c8R-QPfm-83" value="&lt;b&gt;t3 = 5&lt;/b&gt;" style="text;html=1;align=center;verticalAlign=middle;resizable=0;points=[];autosize=1;strokeColor=none;fillColor=none;fontColor=#FF0000;fontSize=35;container=0;" vertex="1" parent="qPNzb-0w08D9c8R-QPfm-122">
          <mxGeometry x="2905.0670495897307" y="504.0403883495146" width="110" height="60" as="geometry" />
        </mxCell>
        <mxCell id="JCvha5B-mu45JHcWkv43-62" value="No" style="text;html=1;align=center;verticalAlign=middle;resizable=0;points=[];autosize=1;strokeColor=none;fillColor=none;fontSize=35;container=0;" parent="qPNzb-0w08D9c8R-QPfm-122" vertex="1">
          <mxGeometry x="979.7668463363069" y="912.3251779935275" width="70" height="60" as="geometry" />
        </mxCell>
        <mxCell id="qPNzb-0w08D9c8R-QPfm-95" value="" style="endArrow=none;dashed=1;html=1;rounded=0;exitX=1;exitY=0.5;exitDx=0;exitDy=0;fontColor=#FF0000;strokeColor=light-dark(#ff0000, #ededed);fontSize=35;strokeWidth=2;" edge="1" parent="qPNzb-0w08D9c8R-QPfm-122">
          <mxGeometry width="50" height="50" relative="1" as="geometry">
            <mxPoint x="2428.2498098261713" y="679.956504854369" as="sourcePoint" />
            <mxPoint x="2936.532587307075" y="679.956504854369" as="targetPoint" />
          </mxGeometry>
        </mxCell>
        <mxCell id="qPNzb-0w08D9c8R-QPfm-96" value="&lt;b&gt;t4 = 5&lt;/b&gt;" style="text;html=1;align=center;verticalAlign=middle;resizable=0;points=[];autosize=1;strokeColor=none;fillColor=none;fontColor=#FF0000;fontSize=35;container=0;" vertex="1" parent="qPNzb-0w08D9c8R-QPfm-122">
          <mxGeometry x="2905.0670495897307" y="642.2718446601941" width="110" height="60" as="geometry" />
        </mxCell>
        <mxCell id="qPNzb-0w08D9c8R-QPfm-97" value="" style="endArrow=none;dashed=1;html=1;rounded=0;exitX=1;exitY=0.5;exitDx=0;exitDy=0;fontColor=#FF0000;strokeColor=light-dark(#ff0000, #ededed);fontSize=35;strokeWidth=2;entryX=0.106;entryY=0.554;entryDx=0;entryDy=0;entryPerimeter=0;" edge="1" parent="qPNzb-0w08D9c8R-QPfm-122" target="qPNzb-0w08D9c8R-QPfm-98">
          <mxGeometry width="50" height="50" relative="1" as="geometry">
            <mxPoint x="1564.4537264640242" y="815.45786407767" as="sourcePoint" />
            <mxPoint x="2948.0401093892433" y="811.6504854368933" as="targetPoint" />
          </mxGeometry>
        </mxCell>
        <mxCell id="qPNzb-0w08D9c8R-QPfm-98" value="&lt;b&gt;t5 = 5&lt;/b&gt;" style="text;html=1;align=center;verticalAlign=middle;resizable=0;points=[];autosize=1;strokeColor=none;fillColor=none;fontColor=#FF0000;fontSize=35;container=0;" vertex="1" parent="qPNzb-0w08D9c8R-QPfm-122">
          <mxGeometry x="2905.0670495897307" y="768.9335922330098" width="110" height="60" as="geometry" />
        </mxCell>
        <mxCell id="qPNzb-0w08D9c8R-QPfm-99" value="" style="endArrow=none;dashed=1;html=1;rounded=0;exitX=1;exitY=0.5;exitDx=0;exitDy=0;fontColor=#FF0000;strokeColor=light-dark(#ff0000, #ededed);fontSize=35;strokeWidth=2;entryX=0.106;entryY=0.55;entryDx=0;entryDy=0;entryPerimeter=0;" edge="1" parent="qPNzb-0w08D9c8R-QPfm-122" target="qPNzb-0w08D9c8R-QPfm-100">
          <mxGeometry width="50" height="50" relative="1" as="geometry">
            <mxPoint x="1564.4537264640242" y="977.7879611650486" as="sourcePoint" />
            <mxPoint x="2918.0186915887857" y="973.9805825242718" as="targetPoint" />
          </mxGeometry>
        </mxCell>
        <mxCell id="qPNzb-0w08D9c8R-QPfm-100" value="&lt;b&gt;t6 = 5&lt;/b&gt;" style="text;html=1;align=center;verticalAlign=middle;resizable=0;points=[];autosize=1;strokeColor=none;fillColor=none;fontColor=#FF0000;fontSize=35;container=0;" vertex="1" parent="qPNzb-0w08D9c8R-QPfm-122">
          <mxGeometry x="2905.0670495897307" y="931.5145631067962" width="110" height="60" as="geometry" />
        </mxCell>
        <mxCell id="qPNzb-0w08D9c8R-QPfm-101" value="" style="endArrow=none;dashed=1;html=1;rounded=0;exitX=1;exitY=0.5;exitDx=0;exitDy=0;fontColor=#FF0000;strokeColor=light-dark(#ff0000, #ededed);fontSize=35;strokeWidth=2;entryX=0.106;entryY=0.458;entryDx=0;entryDy=0;entryPerimeter=0;" edge="1" parent="qPNzb-0w08D9c8R-QPfm-122" target="qPNzb-0w08D9c8R-QPfm-102">
          <mxGeometry width="50" height="50" relative="1" as="geometry">
            <mxPoint x="1564.4537264640242" y="1155.4361165048545" as="sourcePoint" />
            <mxPoint x="2948.0401093892433" y="1151.6287378640777" as="targetPoint" />
          </mxGeometry>
        </mxCell>
        <mxCell id="qPNzb-0w08D9c8R-QPfm-102" value="&lt;b&gt;t7 = 5&lt;/b&gt;" style="text;html=1;align=center;verticalAlign=middle;resizable=0;points=[];autosize=1;strokeColor=none;fillColor=none;fontColor=#FF0000;fontSize=35;container=0;" vertex="1" parent="qPNzb-0w08D9c8R-QPfm-122">
          <mxGeometry x="2905.0670495897307" y="1114.01786407767" width="110" height="60" as="geometry" />
        </mxCell>
        <mxCell id="qPNzb-0w08D9c8R-QPfm-103" value="" style="endArrow=none;dashed=1;html=1;rounded=0;exitX=1;exitY=0.5;exitDx=0;exitDy=0;fontColor=#FF0000;strokeColor=light-dark(#ff0000, #ededed);fontSize=35;strokeWidth=2;entryX=0.036;entryY=0.447;entryDx=0;entryDy=0;entryPerimeter=0;" edge="1" parent="qPNzb-0w08D9c8R-QPfm-122" target="qPNzb-0w08D9c8R-QPfm-104">
          <mxGeometry width="50" height="50" relative="1" as="geometry">
            <mxPoint x="1558.3340018231538" y="1330.0590291262135" as="sourcePoint" />
            <mxPoint x="2941.9203847483727" y="1326.251650485437" as="targetPoint" />
          </mxGeometry>
        </mxCell>
        <mxCell id="qPNzb-0w08D9c8R-QPfm-104" value="&lt;b&gt;t8 = 5&lt;/b&gt;" style="text;html=1;align=center;verticalAlign=middle;resizable=0;points=[];autosize=1;strokeColor=none;fillColor=none;fontColor=#FF0000;fontSize=35;container=0;" vertex="1" parent="qPNzb-0w08D9c8R-QPfm-122">
          <mxGeometry x="2905.0670495897307" y="1288.6407766990292" width="110" height="60" as="geometry" />
        </mxCell>
        <mxCell id="qPNzb-0w08D9c8R-QPfm-105" value="" style="endArrow=none;dashed=1;html=1;rounded=0;exitX=1;exitY=0.5;exitDx=0;exitDy=0;fontColor=#FF0000;strokeColor=light-dark(#ff0000, #ededed);fontSize=35;strokeWidth=2;entryX=0.106;entryY=0.57;entryDx=0;entryDy=0;entryPerimeter=0;" edge="1" parent="qPNzb-0w08D9c8R-QPfm-122" target="qPNzb-0w08D9c8R-QPfm-106">
          <mxGeometry width="50" height="50" relative="1" as="geometry">
            <mxPoint x="1578.6246503001912" y="1492.3891262135924" as="sourcePoint" />
            <mxPoint x="2940.7208373935177" y="1487.268349514563" as="targetPoint" />
          </mxGeometry>
        </mxCell>
        <mxCell id="qPNzb-0w08D9c8R-QPfm-106" value="&lt;b&gt;t9 = 5&lt;/b&gt;" style="text;html=1;align=center;verticalAlign=middle;resizable=0;points=[];autosize=1;strokeColor=none;fillColor=none;fontColor=#FF0000;fontSize=35;container=0;" vertex="1" parent="qPNzb-0w08D9c8R-QPfm-122">
          <mxGeometry x="2905.0670495897307" y="1443.5922330097087" width="110" height="60" as="geometry" />
        </mxCell>
        <mxCell id="qPNzb-0w08D9c8R-QPfm-107" value="" style="endArrow=none;dashed=1;html=1;rounded=0;exitX=1;exitY=0.5;exitDx=0;exitDy=0;fontColor=#FF0000;strokeColor=light-dark(#ff0000, #ededed);fontSize=35;strokeWidth=2;entryX=0.044;entryY=0.517;entryDx=0;entryDy=0;entryPerimeter=0;" edge="1" parent="qPNzb-0w08D9c8R-QPfm-122" target="qPNzb-0w08D9c8R-QPfm-108">
          <mxGeometry width="50" height="50" relative="1" as="geometry">
            <mxPoint x="1565.8769182409703" y="1657.833009708738" as="sourcePoint" />
            <mxPoint x="2948.0401093892433" y="1652.8155339805826" as="targetPoint" />
          </mxGeometry>
        </mxCell>
        <mxCell id="qPNzb-0w08D9c8R-QPfm-108" value="&lt;b&gt;t10 = 10&lt;/b&gt;" style="text;html=1;align=center;verticalAlign=middle;resizable=0;points=[];autosize=1;strokeColor=none;fillColor=none;fontColor=#FF0000;fontSize=35;container=0;" vertex="1" parent="qPNzb-0w08D9c8R-QPfm-122">
          <mxGeometry x="2874.7357384904944" y="1611.8252427184466" width="150" height="60" as="geometry" />
        </mxCell>
        <mxCell id="qPNzb-0w08D9c8R-QPfm-109" value="" style="endArrow=none;dashed=1;html=1;rounded=0;exitX=1;exitY=0.5;exitDx=0;exitDy=0;fontColor=#FF0000;strokeColor=light-dark(#ff0000, #ededed);fontSize=35;strokeWidth=2;exitPerimeter=0;entryX=0.02;entryY=0.499;entryDx=0;entryDy=0;entryPerimeter=0;" edge="1" parent="qPNzb-0w08D9c8R-QPfm-122" source="JCvha5B-mu45JHcWkv43-72" target="qPNzb-0w08D9c8R-QPfm-110">
          <mxGeometry width="50" height="50" relative="1" as="geometry">
            <mxPoint x="1547.4974130072608" y="1837.3258252427188" as="sourcePoint" />
            <mxPoint x="2928.9693395781583" y="1834.9729139078524" as="targetPoint" />
          </mxGeometry>
        </mxCell>
        <mxCell id="qPNzb-0w08D9c8R-QPfm-110" value="&lt;b&gt;t11 = 10&lt;/b&gt;" style="text;html=1;align=center;verticalAlign=middle;resizable=0;points=[];autosize=1;strokeColor=none;fillColor=none;fontColor=#FF0000;fontSize=35;container=0;" vertex="1" parent="qPNzb-0w08D9c8R-QPfm-122">
          <mxGeometry x="2874.7357384904944" y="1795.3025242718445" width="150" height="60" as="geometry" />
        </mxCell>
        <mxCell id="qPNzb-0w08D9c8R-QPfm-111" value="" style="endArrow=none;dashed=1;html=1;rounded=0;exitX=1;exitY=0.5;exitDx=0;exitDy=0;fontColor=#FF0000;strokeColor=light-dark(#ff0000, #ededed);fontSize=35;strokeWidth=2;exitPerimeter=0;" edge="1" parent="qPNzb-0w08D9c8R-QPfm-122">
          <mxGeometry width="50" height="50" relative="1" as="geometry">
            <mxPoint x="1563.2338477980697" y="2023.341359223301" as="sourcePoint" />
            <mxPoint x="2904.2803738317757" y="2021.747572815534" as="targetPoint" />
          </mxGeometry>
        </mxCell>
        <mxCell id="qPNzb-0w08D9c8R-QPfm-112" value="&lt;b&gt;t12 = 5&lt;/b&gt;" style="text;html=1;align=center;verticalAlign=middle;resizable=0;points=[];autosize=1;strokeColor=none;fillColor=none;fontColor=#FF0000;fontSize=35;container=0;" vertex="1" parent="qPNzb-0w08D9c8R-QPfm-122">
          <mxGeometry x="2889.9013940401123" y="1984.6827184466022" width="130" height="60" as="geometry" />
        </mxCell>
        <mxCell id="qPNzb-0w08D9c8R-QPfm-116" style="edgeStyle=orthogonalEdgeStyle;rounded=0;orthogonalLoop=1;jettySize=auto;html=1;entryX=0.5;entryY=0;entryDx=0;entryDy=0;strokeWidth=3;strokeColor=#4C0099;fontSize=35;" edge="1" parent="qPNzb-0w08D9c8R-QPfm-122" source="qPNzb-0w08D9c8R-QPfm-114" target="JCvha5B-mu45JHcWkv43-74">
          <mxGeometry relative="1" as="geometry" />
        </mxCell>
        <mxCell id="qPNzb-0w08D9c8R-QPfm-114" value="Hands keycard to customer" style="whiteSpace=wrap;html=1;fontSize=35;strokeWidth=2;" vertex="1" parent="qPNzb-0w08D9c8R-QPfm-122">
          <mxGeometry x="1095.6136925156381" y="1979.9254368932038" width="467.62015528243165" height="88.54368932038835" as="geometry" />
        </mxCell>
        <mxCell id="qPNzb-0w08D9c8R-QPfm-118" value="" style="endArrow=none;dashed=1;html=1;rounded=0;exitX=1;exitY=0.5;exitDx=0;exitDy=0;fontColor=#FF0000;strokeColor=light-dark(#ff0000, #ededed);fontSize=35;strokeWidth=2;exitPerimeter=0;" edge="1" parent="qPNzb-0w08D9c8R-QPfm-122">
          <mxGeometry width="50" height="50" relative="1" as="geometry">
            <mxPoint x="1562.4612579762988" y="2185.4796116504854" as="sourcePoint" />
            <mxPoint x="2926.9362084682352" y="2186.837281553398" as="targetPoint" />
          </mxGeometry>
        </mxCell>
        <mxCell id="qPNzb-0w08D9c8R-QPfm-119" value="&lt;b&gt;t13 = 5&lt;/b&gt;" style="text;html=1;align=center;verticalAlign=middle;resizable=0;points=[];autosize=1;strokeColor=none;fillColor=none;fontColor=#FF0000;fontSize=35;container=0;" vertex="1" parent="qPNzb-0w08D9c8R-QPfm-122">
          <mxGeometry x="2889.9013940401123" y="2147.0128155339803" width="130" height="60" as="geometry" />
        </mxCell>
        <mxCell id="qPNzb-0w08D9c8R-QPfm-120" value="&lt;b&gt;T = 71&lt;/b&gt;" style="text;html=1;align=center;verticalAlign=middle;resizable=0;points=[];autosize=1;strokeColor=none;fillColor=none;fontColor=#FF0000;fontSize=35;container=0;" vertex="1" parent="qPNzb-0w08D9c8R-QPfm-122">
          <mxGeometry x="2898.197890711225" y="2210.970873786408" width="120" height="60" as="geometry" />
        </mxCell>
        <mxCell id="qPNzb-0w08D9c8R-QPfm-121" value="" style="endArrow=none;html=1;rounded=0;strokeWidth=2;fontSize=35;" edge="1" parent="qPNzb-0w08D9c8R-QPfm-122">
          <mxGeometry width="50" height="50" relative="1" as="geometry">
            <mxPoint x="2926.163618646465" y="2218.50640776699" as="sourcePoint" />
            <mxPoint x="3089.5866972621247" y="2219.008155339806" as="targetPoint" />
          </mxGeometry>
        </mxCell>
      </root>
    </mxGraphModel>
  </diagram>
</mxfile>
